<?xml version="1.0" standalone="no"?>
<!DOCTYPE svg PUBLIC "-//W3C//DTD SVG 20010904//EN"
 "http://www.w3.org/TR/2001/REC-SVG-20010904/DTD/svg10.dtd">
<svg version="1.0" xmlns="http://www.w3.org/2000/svg"
 width="2048.000000pt" height="2048.000000pt" viewBox="0 0 2048.000000 2048.000000"
 preserveAspectRatio="xMidYMid meet">
<metadata>
Created by potrace 1.16, written by Peter Selinger 2001-2019
</metadata>
<g transform="translate(0.000000,2048.000000) scale(0.100000,-0.100000)"
fill="#000000" stroke="none">
<path d="M3790 16830 l0 -2540 2547 0 2548 0 -1008 1008 -1009 1009 154 81
c993 525 2097 801 3214 802 1219 1 2438 -327 3481 -936 1372 -801 2425 -2029
3000 -3499 246 -628 393 -1275 455 -2000 19 -227 16 -845 -6 -1075 -64 -691
-195 -1267 -431 -1895 -29 -74 -44 -130 -39 -135 5 -5 341 -203 748 -440 560
-327 741 -429 747 -418 5 7 32 69 60 138 657 1589 826 3328 488 5020 -240
1202 -733 2333 -1462 3350 -505 704 -1144 1354 -1852 1885 -1102 825 -2386
1376 -3740 1604 -2060 348 -4203 -68 -5962 -1155 -57 -35 -107 -64 -111 -64
-4 0 -412 405 -907 900 -495 495 -903 900 -907 900 -5 0 -8 -1143 -8 -2540z"/>
<path d="M2170 13408 c-521 -1319 -707 -2767 -539 -4188 296 -2506 1669 -4752
3774 -6172 1837 -1240 4075 -1725 6270 -1357 1061 178 2088 560 3031 1129
l162 97 903 -903 c497 -497 907 -904 911 -904 5 0 8 1143 8 2540 l0 2540
-2547 0 -2548 0 1005 -1005 c923 -924 1004 -1007 987 -1020 -10 -7 -116 -63
-235 -123 -732 -372 -1496 -605 -2292 -701 -310 -38 -451 -45 -820 -45 -371 0
-523 8 -830 45 -1573 190 -3029 911 -4138 2048 -1028 1054 -1698 2403 -1907
3841 -164 1135 -58 2202 331 3322 26 76 46 139 43 142 -2 2 -175 107 -384 233
-209 126 -538 324 -730 441 -193 116 -358 214 -367 217 -12 5 -30 -30 -88
-177z"/>
</g>
</svg>
