<?xml version="1.0" standalone="no"?>
<!DOCTYPE svg PUBLIC "-//W3C//DTD SVG 20010904//EN"
 "http://www.w3.org/TR/2001/REC-SVG-20010904/DTD/svg10.dtd">
<svg version="1.0" xmlns="http://www.w3.org/2000/svg"
 width="512.000000pt" height="512.000000pt" viewBox="0 0 512.000000 512.000000"
 preserveAspectRatio="xMidYMid meet">
<metadata>
Created by potrace 1.16, written by Peter Selinger 2001-2019
</metadata>
<g transform="translate(0.000000,512.000000) scale(0.100000,-0.100000)"
fill="#000000" stroke="none">
<path d="M2408 4621 c-74 -24 -144 -69 -200 -129 -91 -97 -128 -194 -128 -332
0 -138 37 -235 128 -332 95 -101 206 -148 352 -148 146 0 257 47 352 148 91
97 128 194 128 332 0 138 -37 235 -128 332 -57 61 -127 105 -203 129 -81 25
-222 25 -301 0z"/>
<path d="M2408 3021 c-74 -24 -144 -69 -200 -129 -91 -97 -128 -194 -128 -332
0 -138 37 -235 128 -332 95 -101 206 -148 352 -148 146 0 257 47 352 148 91
97 128 194 128 332 0 138 -37 235 -128 332 -57 61 -127 105 -203 129 -81 25
-222 25 -301 0z"/>
<path d="M2408 1421 c-74 -24 -144 -69 -200 -129 -91 -97 -128 -194 -128 -332
0 -138 37 -235 128 -332 95 -101 206 -148 352 -148 146 0 257 47 352 148 91
97 128 194 128 332 0 138 -37 235 -128 332 -57 61 -127 105 -203 129 -81 25
-222 25 -301 0z"/>
</g>
</svg>
